<svg xmlns="http://www.w3.org/2000/svg" width="1200" height="675" viewBox="0 0 1200 675" role="img" aria-label="Structure Testing Example">
<defs>
  <linearGradient id="bg" x1="0" y1="0" x2="1" y2="1"><stop offset="0" stop-color="#071733"/><stop offset="0.55" stop-color="#003399"/><stop offset="1" stop-color="#33cc66"/></linearGradient>
  <radialGradient id="orb" cx="75%" cy="20%" r="45%"><stop offset="0" stop-color="#ffcc00" stop-opacity=".65"/><stop offset="1" stop-color="#ffcc00" stop-opacity="0"/></radialGradient>
  <filter id="shadow" x="-20%" y="-20%" width="140%" height="140%"><feDropShadow dx="0" dy="12" stdDeviation="12" flood-color="#001a66" flood-opacity=".38"/></filter>
</defs>
<rect width="1200" height="675" fill="url(#bg)"/>
<rect width="1200" height="675" fill="url(#orb)"/>
<g opacity=".14" stroke="#ffffff" stroke-width="2"><path d="M0 560 C220 440 370 620 600 500 S965 390 1200 480" fill="none"/><path d="M0 130 C180 220 360 70 560 150 S910 260 1200 130" fill="none"/></g>
<g transform="translate(675 125)" filter="url(#shadow)"><rect x="0" y="0" width="445" height="320" rx="28" fill="#fff" opacity=".96"/><path d="M55 245h335" stroke="#101827" stroke-width="10" stroke-linecap="round"/><path d="M75 245l65-145 65 145 65-145 65 145" fill="none" stroke="#003399" stroke-width="12" stroke-linejoin="round"/><path d="M75 245h260M140 100h130" stroke="#33cc66" stroke-width="10" stroke-linecap="round"/><path d="M260 62v52M238 84h44" stroke="#ffcc00" stroke-width="12" stroke-linecap="round"/><rect x="300" y="48" width="78" height="55" rx="10" fill="#ffcc00"/></g>
<g filter="url(#shadow)">
  <rect x="64" y="64" width="560" height="160" rx="28" fill="#ffffff" opacity=".96"/>
  <text x="100" y="130" fill="#003399" font-family="Inter,Arial,sans-serif" font-size="44" font-weight="900">Structure Testing Example</text>
  <text x="100" y="178" fill="#334155" font-family="Inter,Arial,sans-serif" font-size="24" font-weight="700">Load paths and redesign from evidence</text>
</g>
<g transform="translate(1010 530)"><circle r="58" fill="#ffcc00"/><path d="M-12 0h24M0-12v24" stroke="#003399" stroke-width="12" stroke-linecap="round"/></g>
</svg>