<svg xmlns="http://www.w3.org/2000/svg" width="1200" height="675" viewBox="0 0 1200 675" role="img" aria-label="Design Process Map">
<defs>
  <linearGradient id="bg" x1="0" y1="0" x2="1" y2="1"><stop offset="0" stop-color="#071733"/><stop offset="0.55" stop-color="#003399"/><stop offset="1" stop-color="#33cc66"/></linearGradient>
  <radialGradient id="orb" cx="75%" cy="20%" r="45%"><stop offset="0" stop-color="#ffcc00" stop-opacity=".65"/><stop offset="1" stop-color="#ffcc00" stop-opacity="0"/></radialGradient>
  <filter id="shadow" x="-20%" y="-20%" width="140%" height="140%"><feDropShadow dx="0" dy="12" stdDeviation="12" flood-color="#001a66" flood-opacity=".38"/></filter>
</defs>
<rect width="1200" height="675" fill="url(#bg)"/>
<rect width="1200" height="675" fill="url(#orb)"/>
<g opacity=".14" stroke="#ffffff" stroke-width="2"><path d="M0 560 C220 440 370 620 600 500 S965 390 1200 480" fill="none"/><path d="M0 130 C180 220 360 70 560 150 S910 260 1200 130" fill="none"/></g>
<g transform="translate(710 170)"><circle cx="80" cy="80" r="52" fill="#fff"/><circle cx="220" cy="80" r="52" fill="#fff"/><circle cx="360" cy="80" r="52" fill="#fff"/><circle cx="150" cy="220" r="52" fill="#fff"/><circle cx="290" cy="220" r="52" fill="#fff"/><path d="M132 80h36M272 80h36M330 126l-28 48M198 220h40M118 184l-20-56" stroke="#ffcc00" stroke-width="10" stroke-linecap="round"/><text x="52" y="90" font-family="Arial" font-size="22" font-weight="900" fill="#003399">ASK</text><text x="180" y="90" font-family="Arial" font-size="22" font-weight="900" fill="#003399">PLAN</text><text x="322" y="90" font-family="Arial" font-size="22" font-weight="900" fill="#003399">TEST</text><text x="105" y="228" font-family="Arial" font-size="20" font-weight="900" fill="#003399">CREATE</text><text x="250" y="228" font-family="Arial" font-size="20" font-weight="900" fill="#003399">IMPROVE</text></g>
<g filter="url(#shadow)">
  <rect x="64" y="64" width="560" height="160" rx="28" fill="#ffffff" opacity=".96"/>
  <text x="100" y="130" fill="#003399" font-family="Inter,Arial,sans-serif" font-size="44" font-weight="900">Design Process Map</text>
  <text x="100" y="178" fill="#334155" font-family="Inter,Arial,sans-serif" font-size="24" font-weight="700">Ask • Imagine • Plan • Create • Test • Improve</text>
</g>
<g transform="translate(1010 530)"><circle r="58" fill="#ffcc00"/><path d="M-12 0h24M0-12v24" stroke="#003399" stroke-width="12" stroke-linecap="round"/></g>
</svg>